<?xml version="1.0" encoding="UTF-8" standalone="no"?>
<!-- Created with Inkscape (http://www.inkscape.org/) -->

<svg
   width="407"
   height="60"
   viewBox="0 0 107.68562 15.875"
   version="1.1"
   id="svg1"
   xmlns="http://www.w3.org/2000/svg"
   xmlns:svg="http://www.w3.org/2000/svg">
  <defs
     id="defs1" />
  <g
     id="layer1">
    <g
       id="text4"
       style="font-size:14.1111px;font-family:'Lucida Blackletter';-inkscape-font-specification:'Lucida Blackletter';stroke-width:0.264583"
       aria-label="Ning Nang Nong">
      <path
         style="fill:#d45500"
         d="m 1.2126726,12.706278 q 0.1240234,-0.606337 0.3858504,-1.061089 0.8888336,-0.420301 1.5916326,-1.591633 0.702799,-1.1782215 0.702799,-2.2530904 0,-0.9577358 -1.185112,-1.3091353 Q 3.2590576,5.960786 3.8998446,5.8092019 3.6586886,4.6034194 3.1143636,4.0039733 2.5700396,3.3976369 1.7156562,3.3976369 q -0.3858504,0 -0.81304187,0.1653645 Q 0.4754228,3.7214757 0,4.0522046 0.0482313,3.1564804 0.4754228,2.4192306 0.89572413,2.2056348 1.2953549,2.102282 1.6949856,1.9989293 2.080836,1.9989293 q 1.3849276,0 2.3633336,1.150661 0.978406,1.1437708 0.978406,2.7698546 0,1.2126727 -0.737249,2.7629644 -0.73036,1.5434017 -1.812119,2.6182707 0.633897,-0.124024 1.198892,-0.124024 1.192002,0 2.280652,0.37207 V 7.779795 q 0,-2.3288827 0.509873,-3.6517984 0.509874,-1.3229156 1.729437,-2.1635183 1.192002,0.7510303 2.1979694,0.7510303 0.709689,0 1.309135,-0.296278 0,0.5029835 -0.323838,1.446939 -0.461643,0.151584 -0.72347,0.186035 -0.489203,2.0463851 -0.489203,4.0445389 0,1.8327898 0.489203,2.8249765 0.792371,-0.537435 1.157551,-0.854383 l 0.261827,0.351399 q -0.971516,0.861273 -1.956812,2.287542 -1.3987084,-1.150661 -1.3987084,-4.1823429 0,-2.4597963 0.447862,-4.4717305 -0.868163,-0.2342663 -1.302245,-0.5581051 -0.799262,0.5856658 -1.143771,1.632974 -0.337619,1.0473083 -0.337619,2.9076584 v 3.6724691 q -0.558105,0.37207 -0.902614,0.999077 -1.260904,-0.468533 -2.315103,-0.468533 -1.3160251,0 -2.349553,0.468533 z"
         id="path7" />
      <path
         d="m 16.191937,4.9685993 q -0.537435,1.0059671 -0.537435,2.2806514 v 2.039495 q 0,0.8750533 0.192925,1.4538293 0.530545,-0.241157 1.054199,-0.682129 l 0.282497,0.37207 q -1.50206,1.281575 -2.122177,2.191079 -0.764811,-0.950845 -0.764811,-2.563149 V 8.6272878 q 0,-1.4882801 0.454753,-2.4460159 -0.316949,-0.075792 -0.530545,-0.2067055 -0.675238,0.5443246 -1.074869,1.226453 l -0.337619,-0.261827 q 0.73725,-1.5227311 1.83279,-2.3082122 0.599446,0.2893878 1.550292,0.3376191 z M 14.042199,3.3562958 Q 14.166222,2.8188613 14.428049,2.2676465 15.440906,1.137656 16.584677,0.46241788 16.123035,1.2754598 15.978341,2.1160624 14.917252,2.6466067 14.042199,3.3562958 Z m 5.622391,4.7611183 v 2.5493689 q 0.158474,0.234266 0.530544,0.578775 -0.74414,0.627007 -1.254014,1.378037 -0.275607,-0.682128 -0.868163,-1.095539 0.234266,-0.695909 0.234266,-1.453829 V 7.1803489 q 0,-0.516764 -0.186035,-0.9784064 -0.551215,0.3927406 -0.964626,0.9784064 L 16.805163,6.9047414 q 0.689018,-1.336696 2.135957,-2.2737612 0.654568,0.9095045 0.72347,2.5493687 0.771701,-1.5985231 1.86724,-2.5493687 1.302245,1.0266376 2.177299,1.0266376 0.07579,0 0.206705,-0.00689 -0.551215,1.3298059 -0.551215,2.8525369 v 0.3651798 q 0,1.2953545 0.323839,1.9154725 0.475423,-0.234266 1.005967,-0.737251 l 0.316949,0.337619 q -1.233343,1.040419 -2.094617,2.239311 -0.909504,-1.12999 -0.909504,-3.2108268 V 8.9511266 q 0,-1.3022451 0.192925,-2.1290674 Q 21.690304,6.7118162 21.104639,6.2777345 20.133122,7.001204 19.66459,8.1174141 Z m 9.570467,1.7087662 Q 28.277322,11.638299 27.305805,12.451341 26.34807,11.969028 25.693502,10.818367 25.045825,9.6608153 25.045825,8.4619234 q 0,-0.9508456 0.551214,-1.7707777 0.558105,-0.8268223 2.039495,-2.0601655 1.08865,0.3376191 2.053276,0.3376191 0.978406,0 2.046385,-0.3376191 -0.137804,0.6752382 -0.516764,1.2471236 -0.07579,0.02067 -0.117133,0.034451 -0.151584,0.048231 -0.248047,0.062012 -0.37207,1.0955395 -0.37207,2.2393103 0,2.1566279 1.081759,4.3683779 -0.496093,0.682129 -1.915471,1.646755 l -0.268718,0.186034 q -0.716579,0.482313 -1.178221,0.923285 -0.496094,-0.192926 -0.937066,-0.289388 -0.440972,-0.08957 -0.833712,-0.08957 -0.413411,0 -0.895724,0.08957 -0.475423,0.09646 -1.026638,0.289388 0.199815,-0.627007 0.73725,-1.350477 0.413411,-0.130913 0.799261,-0.199815 0.385851,-0.06201 0.744141,-0.06201 0.578775,0 1.1231,0.124023 0.544324,0.124024 1.047308,0.37207 1.012857,-0.654567 1.012857,-1.336696 0,-0.413411 -0.234266,-1.178221 L 29.558896,11.114645 Q 29.379751,10.542759 29.235057,9.8261803 Z m -0.05512,-0.6959089 q -0.05512,-0.5029836 -0.05512,-1.2540138 0,-0.9921867 0.282498,-1.7294366 l -0.261827,0.00689 q -1.185112,0 -2.094616,-0.4685326 -0.36518,0.4134111 -0.551215,0.8957241 -0.179145,0.482313 -0.179145,1.0335279 0,1.8948009 1.322916,3.1763756 0.723469,-0.571885 1.378037,-1.4469391 0.05512,-0.068902 0.158474,-0.2135957 z"
         id="path8" />
      <path
         style="fill:#d45500"
         d="m 36.242378,12.706278 q 0.124023,-0.606337 0.38585,-1.061089 0.888834,-0.420301 1.591633,-1.591633 0.702799,-1.1782215 0.702799,-2.2530904 0,-0.9577358 -1.185112,-1.3091353 Q 38.288763,5.960786 38.92955,5.8092019 38.688394,4.6034194 38.144069,4.0039733 37.599745,3.3976369 36.745362,3.3976369 q -0.385851,0 -0.813042,0.1653645 -0.427192,0.1584743 -0.902615,0.4892032 0.04823,-0.8957242 0.475423,-1.632974 0.420302,-0.2135958 0.819932,-0.3169486 0.399631,-0.1033527 0.785481,-0.1033527 1.384928,0 2.363334,1.150661 0.978407,1.1437708 0.978407,2.7698546 0,1.2126727 -0.73725,2.7629644 -0.73036,1.5434017 -1.812119,2.6182707 0.633897,-0.124024 1.198892,-0.124024 1.192002,0 2.280652,0.37207 V 7.779795 q 0,-2.3288827 0.509873,-3.6517984 0.509874,-1.3229156 1.729437,-2.1635183 1.192002,0.7510303 2.197969,0.7510303 0.709689,0 1.309135,-0.296278 0,0.5029835 -0.323838,1.446939 -0.461643,0.151584 -0.72347,0.186035 -0.489203,2.0463851 -0.489203,4.0445389 0,1.8327898 0.489203,2.8249765 0.792372,-0.537435 1.157551,-0.854383 l 0.261827,0.351399 q -0.971516,0.861273 -1.956812,2.287542 -1.398708,-1.150661 -1.398708,-4.1823429 0,-2.4597963 0.447862,-4.4717305 -0.868163,-0.2342663 -1.302245,-0.5581051 -0.799262,0.5856658 -1.143771,1.632974 -0.337619,1.0473083 -0.337619,2.9076584 v 3.6724691 q -0.558105,0.37207 -0.902614,0.999077 -1.260904,-0.468533 -2.315103,-0.468533 -1.316025,0 -2.349553,0.468533 z"
         id="path9" />
      <path
         d="M 52.489434,9.9433133 Q 51.59371,11.734761 50.525731,12.623595 49.540434,12.127502 48.878977,10.976841 48.224409,9.8192903 48.224409,8.5859467 q 0,-0.9232848 0.661458,-1.9085814 0.661458,-0.9921867 1.977483,-2.0463851 0.558105,0.1653644 1.067979,0.2549368 0.509874,0.082682 0.971516,0.082682 0.902614,0 2.101507,-0.3376191 -0.117134,0.6614578 -0.496094,1.2195628 l -0.09646,0.027561 q -0.199816,0.055121 -0.316949,0.082682 -0.261827,1.7294366 -0.261827,2.6389411 0,1.4262682 0.206706,2.1221772 0.468532,-0.186035 1.061088,-0.661458 l 0.303168,0.35829 q -1.412488,1.171332 -2.018824,2.204859 -0.771701,-0.833712 -0.895724,-2.6802817 z m -0.03445,-0.7234695 q -0.02067,-0.3582896 -0.02067,-0.5649952 0,-1.2953549 0.289388,-2.5149178 -0.04823,0 -0.509874,0.027561 -0.316948,0.02067 -0.930175,-0.1378037 -0.613226,-0.1515841 -1.005967,-0.3445093 -0.38585,0.3927406 -0.585666,0.9026143 -0.192925,0.5098737 -0.192925,1.1299904 0,1.9637028 1.350477,3.2659485 0.923285,-0.633898 1.605413,-1.763888 z M 57.87756,8.1174141 v 2.5493689 q 0.158475,0.234266 0.530545,0.578775 -0.74414,0.627007 -1.254014,1.378037 -0.275607,-0.682128 -0.868163,-1.095539 0.234266,-0.695909 0.234266,-1.453829 V 7.1803489 q 0,-0.516764 -0.186035,-0.9784064 -0.551215,0.3927406 -0.964626,0.9784064 l -0.3514,-0.2756075 q 0.689019,-1.336696 2.135958,-2.2737612 0.654568,0.9095045 0.723469,2.5493687 0.771701,-1.5985231 1.867241,-2.5493687 1.302245,1.0266376 2.177298,1.0266376 0.07579,0 0.206706,-0.00689 -0.551215,1.3298059 -0.551215,2.8525369 v 0.3651798 q 0,1.2953545 0.323839,1.9154725 0.475423,-0.234266 1.005967,-0.737251 l 0.316949,0.337619 q -1.233344,1.040419 -2.094617,2.239311 -0.909504,-1.12999 -0.909504,-3.2108268 V 8.9511266 q 0,-1.3022451 0.192925,-2.1290674 -0.509874,-0.110243 -1.09554,-0.5443247 -0.971516,0.7234695 -1.440049,1.8396796 z m 9.570466,1.7087662 Q 66.49029,11.638299 65.518774,12.451341 64.561038,11.969028 63.906471,10.818367 63.258793,9.6608153 63.258793,8.4619234 q 0,-0.9508456 0.551215,-1.7707777 0.558105,-0.8268223 2.039495,-2.0601655 1.08865,0.3376191 2.053276,0.3376191 0.978406,0 2.046385,-0.3376191 -0.137804,0.6752382 -0.516764,1.2471236 -0.07579,0.02067 -0.117133,0.034451 -0.151584,0.048231 -0.248047,0.062012 -0.37207,1.0955395 -0.37207,2.2393103 0,2.1566279 1.081759,4.3683779 -0.496093,0.682129 -1.915472,1.646755 l -0.268717,0.186034 q -0.716579,0.482313 -1.178222,0.923285 -0.496093,-0.192926 -0.937065,-0.289388 -0.440972,-0.08957 -0.833712,-0.08957 -0.413411,0 -0.895724,0.08957 -0.475423,0.09646 -1.026638,0.289388 0.199815,-0.627007 0.73725,-1.350477 0.413411,-0.130913 0.799261,-0.199815 0.385851,-0.06201 0.74414,-0.06201 0.578776,0 1.123101,0.124023 0.544324,0.124024 1.047308,0.37207 1.012857,-0.654567 1.012857,-1.336696 0,-0.413411 -0.234266,-1.178221 L 67.771865,11.114645 Q 67.59272,10.542759 67.448026,9.8261803 Z m -0.05512,-0.6959089 q -0.05512,-0.5029836 -0.05512,-1.2540138 0,-0.9921867 0.282498,-1.7294366 l -0.261827,0.00689 q -1.185112,0 -2.094617,-0.4685326 -0.365179,0.4134111 -0.551214,0.8957241 -0.179145,0.482313 -0.179145,1.0335279 0,1.8948009 1.322915,3.1763756 0.72347,-0.571885 1.378038,-1.4469391 0.05512,-0.068902 0.158474,-0.2135957 z"
         id="path10" />
      <path
         style="fill:#d45500"
         d="m 74.455349,12.706278 q 0.124023,-0.606337 0.38585,-1.061089 0.888834,-0.420301 1.591633,-1.591633 0.702799,-1.1782215 0.702799,-2.2530904 0,-0.9577358 -1.185112,-1.3091353 Q 76.501734,5.960786 77.142521,5.8092019 76.901365,4.6034194 76.35704,4.0039733 75.812715,3.3976369 74.958332,3.3976369 q -0.38585,0 -0.813042,0.1653645 -0.427191,0.1584743 -0.902614,0.4892032 0.04823,-0.8957242 0.475423,-1.632974 0.420301,-0.2135958 0.819932,-0.3169486 0.399631,-0.1033527 0.785481,-0.1033527 1.384928,0 2.363334,1.150661 0.978406,1.1437708 0.978406,2.7698546 0,1.2126727 -0.73725,2.7629644 -0.730359,1.5434017 -1.812118,2.6182707 0.633897,-0.124024 1.198892,-0.124024 1.192002,0 2.280651,0.37207 V 7.779795 q 0,-2.3288827 0.509874,-3.6517984 0.509874,-1.3229156 1.729437,-2.1635183 1.192002,0.7510303 2.197969,0.7510303 0.709689,0 1.309135,-0.296278 0,0.5029835 -0.323839,1.446939 -0.461642,0.151584 -0.723469,0.186035 -0.489203,2.0463851 -0.489203,4.0445389 0,1.8327898 0.489203,2.8249765 0.792371,-0.537435 1.157551,-0.854383 l 0.261827,0.351399 q -0.971516,0.861273 -1.956813,2.287542 -1.398707,-1.150661 -1.398707,-4.1823429 0,-2.4597963 0.447862,-4.4717305 -0.868164,-0.2342663 -1.302245,-0.5581051 -0.799262,0.5856658 -1.143771,1.632974 -0.337619,1.0473083 -0.337619,2.9076584 v 3.6724691 q -0.558105,0.37207 -0.902615,0.999077 -1.260903,-0.468533 -2.315102,-0.468533 -1.316025,0 -2.349553,0.468533 z"
         id="path11" />
      <path
         d="m 89.469058,12.623595 q -1.350477,-0.344509 -2.21864,-1.412488 -0.861273,-1.067978 -0.861273,-2.4115645 0,-1.6949857 1.901691,-3.1419247 l 0.234266,-0.186035 q 0.620117,-0.4616424 0.943956,-0.8406026 1.391817,0.4065209 2.23931,1.4607193 0.847493,1.0541984 0.847493,2.3771141 0,1.6949854 -1.963703,3.1763754 l -0.296278,0.227376 q -0.502984,0.37896 -0.826822,0.75103 z m 0.647677,-1.157551 q 1.157551,-0.923285 1.157551,-2.3219922 0,-1.0541984 -0.675238,-1.9499226 -0.668348,-0.9026143 -1.812119,-1.3711469 -1.1231,0.8337124 -1.1231,2.2737612 0,1.0817592 0.654568,1.9843735 0.661457,0.902614 1.798338,1.384927 z m 5.463916,-3.3486299 v 2.5493689 q 0.15848,0.234266 0.53055,0.578775 -0.74414,0.627007 -1.25402,1.378037 -0.2756,-0.682128 -0.86816,-1.095539 0.23427,-0.695909 0.23427,-1.453829 V 7.1803489 q 0,-0.516764 -0.18604,-0.9784064 -0.55121,0.3927406 -0.96462,0.9784064 l -0.3514,-0.2756075 q 0.68902,-1.336696 2.13595,-2.2737612 0.65457,0.9095045 0.72347,2.5493687 0.7717,-1.5985231 1.86724,-2.5493687 1.30225,1.0266376 2.1773,1.0266376 0.0758,0 0.20671,-0.00689 -0.55122,1.3298059 -0.55122,2.8525369 v 0.3651798 q 0,1.2953545 0.32384,1.9154725 0.475429,-0.234266 1.005969,-0.737251 l 0.31695,0.337619 q -1.233349,1.040419 -2.094619,2.239311 -0.9095,-1.12999 -0.9095,-3.2108268 V 8.9511266 q 0,-1.3022451 0.19292,-2.1290674 -0.50987,-0.110243 -1.09554,-0.5443247 -0.97151,0.7234695 -1.44005,1.8396796 z m 9.570469,1.7087662 q -0.95773,1.8121187 -1.92925,2.6251607 -0.95773,-0.482313 -1.6123,-1.632974 -0.64768,-1.1575517 -0.64768,-2.3564436 0,-0.9508456 0.55122,-1.7707777 0.5581,-0.8268223 2.03949,-2.0601655 1.08865,0.3376191 2.05328,0.3376191 0.9784,0 2.04638,-0.3376191 -0.1378,0.6752382 -0.51676,1.2471236 -0.0758,0.02067 -0.11714,0.034451 -0.15158,0.048231 -0.24804,0.062012 -0.37207,1.0955395 -0.37207,2.2393103 0,2.1566279 1.08176,4.3683779 -0.4961,0.682129 -1.91548,1.646755 l -0.26871,0.186035 q -0.71658,0.482313 -1.17822,0.923285 -0.4961,-0.192926 -0.93707,-0.289388 -0.44097,-0.08957 -0.83371,-0.08957 -0.41341,0 -0.89573,0.08957 -0.47542,0.09646 -1.02663,0.289388 0.19981,-0.627007 0.73725,-1.350477 0.41341,-0.130913 0.79926,-0.199815 0.38585,-0.06201 0.74414,-0.06201 0.57877,0 1.1231,0.124023 0.54432,0.124024 1.04731,0.37207 1.01285,-0.654567 1.01285,-1.336696 0,-0.413411 -0.23426,-1.178221 l -0.17915,-0.592556 q -0.17914,-0.571886 -0.32384,-1.2884657 z m -0.0551,-0.6959089 q -0.0551,-0.5029836 -0.0551,-1.2540138 0,-0.9921867 0.2825,-1.7294366 l -0.26183,0.00689 q -1.18511,0 -2.09462,-0.4685326 -0.36518,0.4134111 -0.55121,0.8957241 -0.17914,0.482313 -0.17914,1.0335279 0,1.8948009 1.32291,3.1763756 0.72347,-0.571885 1.37804,-1.4469391 0.0551,-0.068902 0.15847,-0.2135957 z"
         id="path12" />
    </g>
  </g>
</svg>
